<?xml version="1.0" encoding="UTF-8" standalone="no"?>
<svg width="114px" height="40px" viewBox="0 0 114 40" version="1.1" xmlns="http://www.w3.org/2000/svg" xmlns:xlink="http://www.w3.org/1999/xlink">
    <!-- Generator: Sketch 3.7 (28169) - http://www.bohemiancoding.com/sketch -->
    <title>googleplay-ru</title>
    <desc>Created with Sketch.</desc>
    <defs>
        <linearGradient x1="60.0975452%" y1="91.9907871%" x2="33.4954148%" y2="-59.2425404%" id="linearGradient-1">
            <stop stop-color="#D6FFA1" offset="0%"></stop>
            <stop stop-color="#93E2A7" offset="32.64%"></stop>
            <stop stop-color="#00A3B5" offset="100%"></stop>
        </linearGradient>
        <linearGradient x1="-32.0076828%" y1="-128.78555%" x2="80.4647152%" y2="114.297141%" id="linearGradient-2">
            <stop stop-color="#FF177B" offset="0%"></stop>
            <stop stop-color="#FFA976" offset="67.21%"></stop>
            <stop stop-color="#FFEC73" offset="100%"></stop>
        </linearGradient>
        <linearGradient x1="50.896638%" y1="74.7117962%" x2="-0.0204329308%" y2="-29.447001%" id="linearGradient-3">
            <stop stop-color="#63FFD4" offset="0%"></stop>
            <stop stop-color="#32A0BA" offset="48.54%"></stop>
            <stop stop-color="#1262A9" offset="83.49%"></stop>
            <stop stop-color="#064AA2" offset="100%"></stop>
        </linearGradient>
        <linearGradient x1="119.286521%" y1="35.6755343%" x2="-23.0036001%" y2="61.1783395%" id="linearGradient-4">
            <stop stop-color="#FF4521" offset="0%"></stop>
            <stop stop-color="#D43E65" offset="34.11%"></stop>
            <stop stop-color="#9F36B9" offset="79.35%"></stop>
            <stop stop-color="#8A33DB" offset="100%"></stop>
        </linearGradient>
    </defs>
    <g id="Page-1" stroke="none" stroke-width="1" fill="none" fill-rule="evenodd">
        <g id="googleplay-ru">
            <g id="SemiBold">
                <g id="Group">
                    <path d="M113.53,33.5621053 C113.53,36.9989474 111.005263,39.1363158 107.571053,39.1363158 L6.61631579,39.1363158 C3.18052632,39.1363158 0.394736842,36.3478947 0.394736842,32.9110526 L0.394736842,6.61789474 C0.394736842,3.18157895 3.18052632,0.394736842 6.61631579,0.394736842 L107.570526,0.394736842 C111.004737,0.394736842 113.529474,3.18157895 113.529474,6.61789474 L113.529474,33.5621053 L113.53,33.5621053 Z" id="Shape" fill="#000000"></path>
                    <path d="M107.571053,39.5305263 L6.61631579,39.5305263 C2.96842105,39.5305263 0,36.5610526 0,32.9105263 L0,6.61789474 C0,2.96894737 2.96842105,0 6.61631579,0 L107.570526,0 C111.133684,0 113.924211,2.90684211 113.924211,6.61789474 L113.924211,33.5621053 C113.924737,37.1321053 111.371053,39.5305263 107.571053,39.5305263 L107.571053,39.5305263 Z M6.61631579,0.789473684 C3.40368421,0.789473684 0.789473684,3.40421053 0.789473684,6.61789474 L0.789473684,32.9105263 C0.789473684,36.1252632 3.40368421,38.7410526 6.61631579,38.7410526 L107.570526,38.7410526 C110.898947,38.7410526 113.134737,36.6594737 113.134737,33.5615789 L113.134737,6.61789474 C113.134737,3.35 110.69,0.789473684 107.570526,0.789473684 L6.61631579,0.789473684 L6.61631579,0.789473684 Z" id="Shape" fill="#FFFFFF"></path>
                </g>
                <g id="Group" transform="translate(26.315789, 16.842105)" fill="#FFFFFF">
                    <g id="Shape">
                        <path d="M51.3957895,11.3605263 L50.5457895,12.1610526 C50.3505263,12.2689474 50.1552632,12.3942105 49.96,12.4831579 C49.37,12.7510526 48.7705263,12.8189474 48.2373684,12.8189474 C47.67,12.8189474 46.7805263,12.7821053 45.8742105,12.1263158 C44.6131579,11.2378947 44.0621053,9.71157895 44.0621053,8.38210526 C44.0621053,5.62894737 46.3042105,4.27789474 48.1315789,4.27789474 C48.7710526,4.27789474 49.4278947,4.43789474 49.9615789,4.77526316 C50.8489474,5.36105263 51.0778947,6.12368421 51.2052632,6.53315789 L47.0294737,8.22 L45.6621053,8.32578947 C46.1042105,10.5831579 47.6315789,11.8963158 49.3194737,11.8963158 C50.1626316,11.8963158 50.7884211,11.6221053 51.3631579,11.3373684 C51.3621053,11.3384211 51.4773684,11.2784211 51.3957895,11.3605263 L51.3957895,11.3605263 Z M48.8763158,6.86947368 C49.2157895,6.74631579 49.3915789,6.63894737 49.3915789,6.39263158 C49.3915789,5.68315789 48.59,4.86421053 47.6315789,4.86421053 C46.9210526,4.86421053 45.59,5.41736842 45.59,7.33526316 C45.59,7.63473684 45.6247368,7.95421053 45.6436842,8.27263158 L48.8763158,6.86947368 L48.8763158,6.86947368 Z"></path>
                        <path d="M42.6652632,11.2226316 C42.6652632,11.9131579 42.7884211,12.0205263 43.3726316,12.0736842 C43.6768421,12.1094737 43.9789474,12.1263158 44.2805263,12.1610526 L43.6236842,12.5521053 L40.4936842,12.5521053 C40.9036842,12.0194737 40.9747368,11.9668421 40.9747368,11.6121053 L40.9747368,11.2157895 L40.9673684,0.656315789 L39.5857895,0.656315789 L40.9157895,0.0152631579 L43.4547368,0.0152631579 C42.9047368,0.333684211 42.7405263,0.528421053 42.6694737,1.14947368 L42.6652632,11.2226316 L42.6652632,11.2226316 Z"></path>
                        <path d="M37.8115789,5.14947368 C38.2184211,5.48473684 39.0710526,6.19578947 39.0710526,7.54578947 C39.0710526,8.86105263 38.3289474,9.48105263 37.5815789,10.0678947 C37.3510526,10.2984211 37.0842105,10.5494737 37.0842105,10.9368421 C37.0842105,11.3294737 37.3526316,11.5421053 37.5457895,11.7015789 L38.1873684,12.1963158 C38.9673684,12.8547368 39.6778947,13.4578947 39.6778947,14.6847368 C39.6778947,16.3563158 38.0610526,18.04 35.0057895,18.04 C32.4326316,18.04 31.1884211,16.8147368 31.1884211,15.5010526 C31.1884211,14.8605263 31.5063158,13.9547368 32.5573684,13.3352632 C33.6584211,12.6621053 35.1510526,12.5721053 35.9489474,12.5189474 C35.7,12.1973684 35.4152632,11.86 35.4152632,11.3089474 C35.4152632,11.0084211 35.5057895,10.8289474 35.5931579,10.6173684 C35.3989474,10.6357895 35.2026316,10.6542105 35.0247368,10.6542105 C33.1410526,10.6542105 32.0763158,9.24894737 32.0763158,7.86421053 C32.0763158,7.04684211 32.4484211,6.14157895 33.2136842,5.48473684 C34.2268421,4.65105263 35.4336842,4.50736842 36.3931579,4.50736842 L40.0536842,4.50736842 L38.9157895,5.15 L37.8115789,5.15 L37.8115789,5.14947368 L37.8115789,5.14947368 Z M36.5531579,13.0342105 C36.4073684,13.0152632 36.32,13.0152632 36.1442105,13.0152632 C35.9836842,13.0152632 35.0236842,13.05 34.2805263,13.2994737 C33.8873684,13.4431579 32.7510526,13.8678947 32.7510526,15.1305263 C32.7510526,16.3894737 33.9778947,17.2963158 35.8768421,17.2963158 C37.5810526,17.2963158 38.4868421,16.4789474 38.4868421,15.3784211 C38.4857895,14.4721053 37.9,13.9947368 36.5531579,13.0342105 L36.5531579,13.0342105 Z M37.0631579,9.65947368 C37.4742105,9.25052632 37.5094737,8.68368421 37.5094737,8.36157895 C37.5094737,7.08421053 36.7489474,5.09473684 35.2715789,5.09473684 C34.8110526,5.09473684 34.3121053,5.32526316 34.0294737,5.68315789 C33.7294737,6.05315789 33.6389474,6.53315789 33.6389474,6.99473684 C33.6389474,8.18421053 34.3321053,10.1568421 35.8584211,10.1568421 C36.3036842,10.1568421 36.7826316,9.94052632 37.0631579,9.65947368 L37.0631579,9.65947368 Z"></path>
                        <path d="M26.7994737,12.7821053 C23.9763158,12.7821053 22.4657895,10.5831579 22.4657895,8.59315789 C22.4657895,6.26789474 24.3647368,4.27789474 27.0657895,4.27789474 C29.6768421,4.27789474 31.3121053,6.32210526 31.3121053,8.46842105 C31.3126316,10.5636842 29.6957895,12.7821053 26.7994737,12.7821053 L26.7994737,12.7821053 Z M29.0205263,11.3457895 C29.45,10.7773684 29.5542105,10.0678947 29.5542105,9.37684211 C29.5542105,7.81210526 28.8089474,4.82894737 26.6063158,4.82894737 C26.0205263,4.82894737 25.4305263,5.05842105 25.0052632,5.43210526 C24.3115789,6.05368421 24.1878947,6.83421053 24.1878947,7.6 C24.1878947,9.35473684 25.0547368,12.2494737 27.2073684,12.2494737 C27.9026316,12.2494737 28.6115789,11.9131579 29.0205263,11.3457895 L29.0205263,11.3457895 Z"></path>
                        <path d="M17.3473684,12.7821053 C14.5236842,12.7821053 13.0157895,10.5831579 13.0157895,8.59315789 C13.0157895,6.26789474 14.9152632,4.27789474 17.6152632,4.27789474 C20.2247368,4.27789474 21.8584211,6.32210526 21.8584211,8.46842105 C21.8584211,10.5636842 20.2442105,12.7821053 17.3473684,12.7821053 L17.3473684,12.7821053 Z M19.5689474,11.3457895 C19.9952632,10.7773684 20.1015789,10.0678947 20.1015789,9.37684211 C20.1015789,7.81210526 19.3542105,4.82894737 17.1536842,4.82894737 C16.5657895,4.82894737 15.9821053,5.05842105 15.5557895,5.43210526 C14.8610526,6.05368421 14.7378947,6.83421053 14.7378947,7.6 C14.7378947,9.35473684 15.6084211,12.2494737 17.7573684,12.2494737 C18.4510526,12.2494737 19.1589474,11.9131579 19.5689474,11.3457895 L19.5689474,11.3457895 Z"></path>
                        <path d="M11.8868421,12.1663158 L9.50578947,12.7110526 C8.54105263,12.8631579 7.67473684,12.9968421 6.75736842,12.9968421 C2.16421053,12.9968421 0.414736842,9.61578947 0.414736842,6.97105263 C0.414736842,3.73894737 2.89421053,0.743684211 7.14,0.743684211 C8.03842105,0.743684211 8.90315789,0.875789474 9.69052632,1.09 C10.9384211,1.44105263 11.5215789,1.87263158 11.8868421,2.12631579 L10.5036842,3.44 L9.92052632,3.57052632 L10.3363158,2.90736842 C9.77315789,2.35736842 8.73789474,1.34210526 6.77315789,1.34210526 C4.14631579,1.34210526 2.16421053,3.33894737 2.16421053,6.25421053 C2.16421053,9.38526316 4.42736842,12.3305263 8.05578947,12.3305263 C9.12210526,12.3305263 9.67105263,12.1168421 10.1694737,11.9163158 L10.1694737,9.23210526 L7.65578947,9.36736842 L8.98842105,8.65157895 L12.5163158,8.65157895 L12.0852632,9.06684211 C11.9684211,9.16578947 11.9531579,9.19947368 11.9205263,9.33210526 C11.9031579,9.48368421 11.8873684,9.96578947 11.8873684,10.1352632 L11.8868421,12.1663158 L11.8868421,12.1663158 L11.8868421,12.1663158 Z"></path>
                    </g>
                    <g transform="translate(55.263158, 1.052632)" id="Shape">
                        <path d="M1.25210526,10.3836842 L1.25210526,14.9084211 L0.353684211,14.9084211 L0.353684211,3.39578947 L1.25210526,3.39578947 L1.25210526,4.70631579 C1.83684211,3.86 2.90631579,3.18736842 4.14894737,3.18736842 C6.37631579,3.18736842 7.87736842,4.87736842 7.87736842,7.55263158 C7.87736842,10.21 6.37631579,11.9352632 4.14894737,11.9352632 C2.97578947,11.9363158 1.92631579,11.3315789 1.25210526,10.3836842 L1.25210526,10.3836842 Z M6.91210526,7.55368421 C6.91210526,5.53736842 5.86052632,3.99947368 3.99684211,3.99947368 C2.83947368,3.99947368 1.73315789,4.90947368 1.25210526,5.70210526 L1.25210526,9.38684211 C1.73315789,10.1815789 2.83947368,11.1242105 3.99684211,11.1242105 C5.86052632,11.1242105 6.91210526,9.57263158 6.91210526,7.55368421 L6.91210526,7.55368421 Z"></path>
                        <polygon points="9.10368421 11.7284211 9.10368421 0.217894737 10.0021053 0.217894737 10.0021053 11.7289474 9.10368421 11.7289474"></polygon>
                        <path d="M20.0831579,14.1626316 C20.2742105,14.2478947 20.6021053,14.3015789 20.8110526,14.3015789 C21.3610526,14.3015789 21.7431579,14.0763158 22.0868421,13.2826316 L22.7426316,11.7984211 L19.2031579,3.39578947 L20.2042105,3.39578947 L23.2410526,10.6768421 L26.2478947,3.39578947 L27.2636842,3.39578947 L22.9473684,13.5610526 C22.5,14.6084211 21.7957895,15.1121053 20.8278947,15.1121053 C20.5368421,15.1121053 20.1547368,15.06 19.9294737,14.9915789 L20.0831579,14.1626316 L20.0831579,14.1626316 Z"></path>
                        <path d="M17.4589474,11.7036842 C17.3984211,11.4147368 17.3531579,11.1610526 17.32,10.9473684 C17.2921053,10.7352632 17.2768421,10.5184211 17.2768421,10.2984211 C16.9684211,10.75 16.5326316,11.1263158 15.9742105,11.4231579 C15.4168421,11.7210526 14.8878947,11.8684211 14.16,11.8684211 C13.2852632,11.8684211 12.6057895,11.6531579 12.1205263,11.2163158 C11.6373684,10.78 11.3936842,10.1889474 11.3936842,9.44157895 C11.3936842,8.69421053 11.7463158,8.08789474 12.4484211,7.62421053 C13.1505263,7.15842105 14.0584211,6.92736842 15.1805263,6.92736842 L17.2763158,6.92736842 L17.2763158,5.89210526 C17.2763158,5.29526316 17.0715789,4.82736842 16.6668421,4.48684211 C16.26,4.14684211 15.6884211,3.97368421 14.9468421,3.97368421 C14.2694737,3.97368421 13.7194737,4.13105263 13.3010526,4.43736842 C12.8868421,4.75 12.6768421,5.13736842 12.6768421,5.60421053 L11.7578947,5.60421053 L11.7384211,5.56 C11.7057895,4.93105263 11.9931579,4.37789474 12.6057895,3.90210526 C13.2142105,3.42578947 14.0131579,3.18631579 14.9957895,3.18631579 C15.9742105,3.18631579 16.7678947,3.42210526 17.3652632,3.89263158 C17.9626316,4.35894737 18.2615789,5.03157895 18.2615789,5.91210526 L18.2615789,10.0231579 C18.2615789,10.3184211 18.2747368,10.6036842 18.3131579,10.8815789 C18.3510526,11.16 18.4121053,11.4378947 18.4921053,11.7057895 L17.4578947,11.7057895 L17.4578947,11.7036842 L17.4589474,11.7036842 Z M14.2710526,11.0489474 C15.0336842,11.0489474 15.5815789,10.8789474 16.1431579,10.5410526 C16.7005263,10.2052632 17.0784211,9.76789474 17.2778947,9.23842105 L17.2778947,7.63842105 L15.1726316,7.63842105 C14.3678947,7.63842105 13.7026316,7.81631579 13.1784211,8.17578947 C12.6542105,8.53421053 12.3878947,8.96736842 12.3878947,9.47105263 C12.3878947,9.94578947 12.5552632,10.3263158 12.8915789,10.6142105 C13.2268421,10.9052632 13.6852632,11.0489474 14.2710526,11.0489474 L14.2710526,11.0489474 Z"></path>
                    </g>
                </g>
                <g id="Group" transform="translate(4.736842, 15.263158)">
                    <polygon id="Shape" points="10.2621053 9.71578947 13.1442105 6.83315789 13.1431579 6.83315789 10.2621053 9.71578947 1.06368421 0.518421053 1.06315789 0.518421053 10.2621053 9.71736842 1.04894737 18.9310526 1.04894737 18.9310526 10.2621053 9.71736842 13.1568421 12.6121053 13.1584211 12.6121053"></polygon>
                    <path d="M13.1431579,6.83315789 L1.91368421,0.658947368 C1.59578947,0.484736842 1.30157895,0.444210526 1.06368421,0.517894737 L10.2626316,9.71578947 L13.1431579,6.83315789 L13.1431579,6.83315789 Z" id="Shape" fill="url(#linearGradient-1)"></path>
                    <path d="M13.1584211,12.6121053 L16.9915789,10.5042105 C17.7689474,10.0752632 17.7689474,9.37631579 16.9915789,8.94947368 L13.1436842,6.83315789 L10.2615789,9.71578947 L13.1584211,12.6121053 L13.1584211,12.6121053 Z" id="Shape" fill="url(#linearGradient-2)"></path>
                    <path d="M1.06315789,0.518421053 C0.721578947,0.625263158 0.500526316,0.971052632 0.500526316,1.49421053 L0.502631579,17.9589474 C0.502631579,18.4757895 0.716842105,18.8173684 1.04894737,18.9310526 L10.2626316,9.71736842 L1.06315789,0.518421053 L1.06315789,0.518421053 Z" id="Shape" fill="url(#linearGradient-3)"></path>
                    <path d="M1.04894737,18.9310526 C1.28789474,19.0115789 1.58789474,18.9742105 1.91368421,18.7952632 L13.1573684,12.6121053 L10.2626316,9.71736842 L1.04894737,18.9310526 L1.04894737,18.9310526 Z" id="Shape" fill="url(#linearGradient-4)"></path>
                </g>
                <g id="Group" transform="translate(26.842105, 5.263158)" fill="#FFFFFF">
                    <path d="M0.242105263,0.862631579 C0.628947368,0.61 1.11789474,0.433157895 1.74157895,0.433157895 C2.72736842,0.433157895 3.40947368,0.947368421 3.40947368,1.82315789 C3.40947368,2.52263158 2.89578947,3.06210526 2.23842105,3.21368421 L2.23842105,3.23052632 C3.03052632,3.31473684 3.62,3.83684211 3.62894737,4.65421053 C3.62894737,5.83315789 2.60105263,6.30526316 1.56473684,6.30526316 C1.05052632,6.30526316 0.52,6.19578947 0.0821052632,5.93473684 L0.275789474,5.36210526 C0.587894737,5.53894737 1.08473684,5.70736842 1.55631579,5.70736842 C2.39052632,5.70736842 2.85421053,5.25210526 2.85421053,4.62894737 C2.85421053,3.77789474 2.03684211,3.53368421 1.31210526,3.53368421 L0.975263158,3.53368421 L0.975263158,2.97736842 L1.30368421,2.97736842 C2.05368421,2.97736842 2.64315789,2.51421053 2.64315789,1.93315789 C2.64315789,1.35210526 2.23052632,1.03157895 1.62368421,1.03157895 C1.18526316,1.03157895 0.747368421,1.20842105 0.435789474,1.40210526 L0.242105263,0.862631579 L0.242105263,0.862631579 Z" id="Shape"></path>
                    <path d="M5.73263158,4.42578947 L5.14315789,6.21210526 L4.38526316,6.21210526 L6.32315789,0.534210526 L7.19894737,0.534210526 L9.13684211,6.21210526 L8.35368421,6.21210526 L7.74736842,4.42578947 L5.73263158,4.42578947 L5.73263158,4.42578947 Z M7.60315789,3.85368421 L7.03894737,2.21947368 C6.91263158,1.84894737 6.82842105,1.51157895 6.74368421,1.18315789 L6.72684211,1.18315789 C6.64263158,1.51157895 6.55894737,1.86526316 6.44052632,2.21052632 L5.88421053,3.85368421 L7.60315789,3.85368421 L7.60315789,3.85368421 Z" id="Shape"></path>
                    <polygon id="Shape" points="13.1952632 0.534210526 13.1952632 1.14894737 10.9121053 1.14894737 10.9121053 6.21210526 10.1705263 6.21210526 10.1705263 0.534210526"></polygon>
                    <path d="M14.0357895,0.601578947 C14.3894737,0.542631579 14.8531579,0.492105263 15.4426316,0.492105263 C16.1673684,0.492105263 16.6978947,0.660526316 17.0347368,0.963684211 C17.3378947,1.23315789 17.5315789,1.64578947 17.5315789,2.15157895 C17.5315789,2.66578947 17.38,3.06947368 17.0931579,3.36473684 C16.6973684,3.77736842 16.0736842,3.98842105 15.3578947,3.98842105 C15.1389474,3.98842105 14.9363158,3.97947368 14.7684211,3.93789474 L14.7684211,6.21210526 L14.0352632,6.21210526 L14.0357895,0.601578947 L14.0357895,0.601578947 L14.0357895,0.601578947 Z M14.7689474,3.33947368 C14.9289474,3.38157895 15.1310526,3.39842105 15.3752632,3.39842105 C16.26,3.39842105 16.7989474,2.96 16.7989474,2.19368421 C16.7989474,1.43578947 16.26,1.07315789 15.4594737,1.07315789 C15.1394737,1.07315789 14.8952632,1.09842105 14.7689474,1.13157895 L14.7689474,3.33947368 L14.7689474,3.33947368 Z" id="Shape"></path>
                    <path d="M18.8352632,0.534210526 L19.9647368,2.96894737 C20.1073684,3.30578947 20.2426316,3.63421053 20.3694737,3.96315789 L20.3947368,3.96315789 C20.4952632,3.67631579 20.6047368,3.34789474 20.74,2.94315789 L21.6326316,0.534210526 L22.4078947,0.534210526 L21.2121053,3.46578947 C20.9089474,4.22368421 20.5547368,5.09157895 20.15,5.61368421 C19.7878947,6.07736842 19.3747368,6.31315789 18.8694737,6.31315789 C18.6757895,6.31315789 18.5494737,6.29631579 18.4568421,6.26210526 L18.5242105,5.66421053 C18.5915789,5.68052632 18.6757895,5.68947368 18.8021053,5.68947368 C19.3831579,5.68947368 19.7289474,5.12526316 19.9136842,4.72052632 C19.9726316,4.59421053 19.9557895,4.51 19.8884211,4.37526316 L18.0015789,0.533684211 L18.8352632,0.534210526 L18.8352632,0.534210526 L18.8352632,0.534210526 Z" id="Shape"></path>
                    <path d="M23.0968421,0.862631579 C23.4836842,0.61 23.9726316,0.433157895 24.5963158,0.433157895 C25.5821053,0.433157895 26.2642105,0.947368421 26.2642105,1.82315789 C26.2642105,2.52263158 25.7505263,3.06210526 25.0931579,3.21368421 L25.0931579,3.23052632 C25.8852632,3.31473684 26.4747368,3.83684211 26.4836842,4.65421053 C26.4836842,5.83315789 25.4557895,6.30526316 24.4194737,6.30526316 C23.9052632,6.30526316 23.3747368,6.19578947 22.9368421,5.93473684 L23.1305263,5.36210526 C23.4426316,5.53894737 23.9394737,5.70736842 24.4110526,5.70736842 C25.2452632,5.70736842 25.7089474,5.25210526 25.7089474,4.62894737 C25.7089474,3.77789474 24.8915789,3.53368421 24.1668421,3.53368421 L23.83,3.53368421 L23.83,2.97736842 L24.1584211,2.97736842 C24.9084211,2.97736842 25.4978947,2.51421053 25.4978947,1.93315789 C25.4978947,1.35210526 25.0852632,1.03157895 24.4784211,1.03157895 C24.04,1.03157895 23.6021053,1.20842105 23.2905263,1.40210526 L23.0968421,0.862631579 L23.0968421,0.862631579 Z" id="Shape"></path>
                    <path d="M28.36,0.534210526 L28.36,2.92684211 C28.36,3.81947368 28.3431579,4.56947368 28.2926316,5.32789474 L28.3178947,5.33631579 C28.5957895,4.74684211 28.9494737,4.13210526 29.3621053,3.45789474 L31.1984211,0.534736842 L31.9321053,0.534736842 L31.9321053,6.21263158 L31.2415789,6.21263158 L31.2415789,3.79473684 C31.2415789,2.87631579 31.25,2.20263158 31.3084211,1.48631579 L31.2831579,1.47736842 C31.0052632,2.10105263 30.6173684,2.75842105 30.23,3.38157895 L28.4526316,6.21210526 L27.6694737,6.21210526 L27.6694737,0.534210526 L28.36,0.534210526 L28.36,0.534210526 Z" id="Shape"></path>
                    <polygon id="Shape" points="34.4994737 1.15736842 32.7721053 1.15736842 32.7721053 0.533684211 36.9757895 0.533684211 36.9757895 1.15736842 35.2405263 1.15736842 35.2405263 6.21210526 34.4994737 6.21210526"></polygon>
                    <polygon id="Shape" points="40.7484211 3.55 38.5494737 3.55 38.5494737 5.59684211 41.0094737 5.59684211 41.0094737 6.21210526 37.8084211 6.21210526 37.8084211 0.534210526 40.8831579 0.534210526 40.8831579 1.14894737 38.5494737 1.14894737 38.5494737 2.94315789 40.7484211 2.94315789 40.7484211 3.55"></polygon>
                    <polygon id="Shape" points="45.2857895 0.534210526 45.2857895 2.91 48.0326316 2.91 48.0326316 0.534210526 48.7736842 0.534210526 48.7736842 6.21210526 48.0326316 6.21210526 48.0326316 3.55 45.2857895 3.55 45.2857895 6.21210526 44.5447368 6.21210526 44.5447368 0.534210526"></polygon>
                    <path d="M51.1721053,4.42578947 L50.5831579,6.21210526 L49.8257895,6.21210526 L51.7636842,0.534210526 L52.6394737,0.534210526 L54.5773684,6.21210526 L53.7942105,6.21210526 L53.1878947,4.42578947 L51.1721053,4.42578947 L51.1721053,4.42578947 Z M53.0426316,3.85368421 L52.4784211,2.21947368 C52.3521053,1.84894737 52.2678947,1.51157895 52.1831579,1.18315789 L52.1668421,1.18315789 C52.0826316,1.51157895 51.9984211,1.86526316 51.88,2.21052632 L51.3236842,3.85368421 L53.0426316,3.85368421 L53.0426316,3.85368421 Z" id="Shape"></path>
                </g>
            </g>
        </g>
    </g>
</svg>