<svg width="39px" height="39px" xmlns="http://www.w3.org/2000/svg"><path fill-rule="evenodd" fill="#fff5d1" d="M19.5,39 C30.2695526,39 39,30.2695526 39,19.5 C39,8.73044738 30.2695526,0 19.5,0 C8.73044738,0 0,8.73044738 0,19.5 C0,30.2695526 8.73044738,39 19.5,39 L19.5,39 L19.5,39 Z M19.5,37 C29.1649831,37 37,29.1649831 37,19.5 C37,9.83501688 29.1649831,2 19.5,2 C9.83501688,2 2,9.83501688 2,19.5 C2,29.1649831 9.83501688,37 19.5,37 L19.5,37 L19.5,37 Z M27,18 L28.5,21 L32,21 L32,18 L27,18 L27,18 L27,18 Z M18.2142857,18 L16.5,21 L23.5,21 L22.1363636,18 L18.2142857,18 L18.2142857,18 L18.2142857,18 Z M12.4444444,18 L10.7777778,21 L7,21 L7,18 L12.4444444,18 L12.4444444,18 L12.4444444,18 Z M29.6599322,25.990955 C29.3978573,25.988312 29.0848943,26.0809002 28.7057772,26.3031168 C28.4767797,26.5332689 27.9271867,27.0279655 28.5887343,27.9961939 C29.2528261,28.9644223 30.7285859,29.0093953 30.9245053,29.6548804 C30.9245053,29.6548804 31.2654573,26.0174093 29.6599322,25.990955 L29.6599322,25.990955 L29.6599322,25.990955 Z M27.5786021,22.3587751 C27.4946365,22.3640684 27.4132151,22.3878745 27.334338,22.4302015 L26.4539711,22.901089 C26.143553,23.0677511 26.0443208,23.4566297 26.2351518,23.7767271 L27.1613178,25.2978517 C27.3521488,25.6100127 27.7567106,25.7105395 28.0569513,25.5200683 L28.6854215,25.1285437 C28.9856629,24.9433637 29.0976167,24.5174485 28.9322298,24.1894148 L28.2019832,22.7291358 C28.077307,22.4804649 27.8254103,22.3429023 27.5786021,22.3587751 L27.5786021,22.3587751 L27.5786021,22.3587751 Z M18.2940375,4.90420422 C17.5281686,5.3036647 19.8995619,10.4067061 20.6832415,12.3272909 C21.4694654,14.2425847 24.5329388,21.5942445 25.1486873,21.9169878 C25.761891,22.2370852 26.0010652,22.0571956 26.4132604,21.8799512 C26.8229114,21.7053528 27.5607913,21.1127755 27.1816735,20.4011543 C27.1740402,20.3852816 27.1613178,20.3667637 27.1511403,20.3429546 C27.0086533,20.0678295 26.6524354,19.3535623 26.1817187,18.4276609 C26.1282864,18.3165526 26.0901199,18.2477713 26.0544983,18.1763448 C26.0265093,18.1234355 25.998521,18.0678817 25.973077,18.0123279 C25.9476329,17.9700009 25.9272779,17.9223828 25.904378,17.8747654 C25.8611231,17.7927566 25.8204124,17.7081026 25.7746127,17.6260945 C25.7644352,17.5996402 25.7491686,17.5731859 25.7364462,17.5467317 C25.6881029,17.4514953 25.6397589,17.3562598 25.591415,17.2610242 C25.5786926,17.2345699 25.5634267,17.2054704 25.5481601,17.1763709 C24.466784,15.0494422 23.105523,12.4304629 22.2684109,11.0521918 C20.8486284,8.7136286 18.9632177,4.87245902 18.350014,4.89097706 C18.329659,4.89097706 18.3118483,4.89626792 18.2940375,4.90420422 L18.2940375,4.90420422 Z M9.62526607,25.7317026 C9.45479034,25.7396389 9.32248089,25.8772015 9.29703673,26.1073545 L9.02987334,28.5120536 C8.99425155,28.8480236 9.18253814,28.9670683 9.45224593,28.7765971 L11.4368885,27.3718719 C11.7040519,27.1814 11.6938742,26.8877569 11.4114443,26.7210949 L9.8746186,25.8031298 C9.78556409,25.7502205 9.70159846,25.7264122 9.62526607,25.7317026 L9.62526607,25.7317026 L9.62526607,25.7317026 Z M17.273773,11.3775802 L14.9201905,15.6420187 L12.3274331,20.3403094 L10.1595928,24.2634872 C9.99675042,24.5544851 10.0959826,24.9327822 10.375868,25.0994442 L11.9126938,26.0147641 C12.1951236,26.1840721 12.5564303,26.0835454 12.7192728,25.7925475 L15.7293143,20.3403094 L17.6732458,16.8165918 L19.8334531,12.9066407 C19.9937509,12.6129976 19.8970629,12.2373461 19.6146331,12.0680384 L18.0803518,11.1527183 C17.9760313,11.0892279 17.8564435,11.0627736 17.7444896,11.0707099 C17.5536587,11.0865825 17.3755493,11.1950453 17.273773,11.3775802 L17.273773,11.3775802 Z"></path></svg>