<?xml version="1.0" encoding="UTF-8" standalone="no"?>
<svg width="268px" height="547px" viewBox="0 0 268 547" version="1.1" xmlns="http://www.w3.org/2000/svg" xmlns:xlink="http://www.w3.org/1999/xlink" xmlns:sketch="http://www.bohemiancoding.com/sketch/ns">
    <!-- Generator: Sketch 3.4 (15588) - http://www.bohemiancoding.com/sketch -->
    <title>iphone</title>
    <desc>Created with Sketch.</desc>
    <defs></defs>
    <g id="Page-1" stroke="none" stroke-width="1" fill="none" fill-rule="evenodd" sketch:type="MSPage">
        <g id="iphone" sketch:type="MSLayerGroup" fill="#FFFFFF">
            <path d="M119.744681,547 C119.744681,547 119.744681,546.28776 121.170213,546.28776 L146.829787,546.28776 C148.255319,546.28776 148.255319,547 148.255319,547 L217.758358,547 C251.462816,547 266.574468,531.890376 266.574468,498.200257 L266.574468,156.692708 L265.861702,155.268229 L265.861702,116.807292 L266.574468,115.382812 L266.574468,48.799743 C266.574468,15.1096239 251.462816,4.05160539e-14 217.758358,4.05160539e-14 L50.2416421,4.05160539e-14 C16.5371843,4.05160539e-14 1.42553191,15.1096239 1.42553191,48.799743 L1.42553191,67.6627604 L2.13829787,69.0872396 L2.13829787,91.1666667 L1.42553191,92.5911458 L1.42553191,113.958333 L2.13829787,115.382812 L2.13829787,205.125 L1.42553191,206.549479 L1.42553191,498.200257 C1.42553191,531.541304 16.2256549,546.684895 49.1999637,546.99513 C49.1999637,546.99513 49.1808511,546.28776 50.606383,546.28776 L54.8829787,546.28776 C56.3085106,546.28776 56.3085106,547 56.3085106,547 L119.744681,547 L119.744681,547 L119.744681,547 Z M216.380737,541.302083 L51.619263,541.302083 C19.0190482,541.302083 7.12765957,529.401771 7.12765957,496.783038 L7.12765957,50.2169617 C7.12765957,17.5982288 19.0190482,5.69791667 51.619263,5.69791667 L216.380737,5.69791667 C248.980952,5.69791667 260.87234,17.5982288 260.87234,50.2169617 L260.87234,496.783038 C260.87234,529.401771 248.980952,541.302083 216.380737,541.302083 L216.380737,541.302083 L216.380737,541.302083 L216.380737,541.302083 Z M0,204.412761 L0,165.951823 L0.712765957,164.527344 L1.42553191,164.527344 L1.42553191,204.41276 L0.712765957,205.83724 L0,204.412761 L0,204.412761 L0,204.412761 Z M0,154.55599 L0,116.095052 L0.712765957,114.670573 L1.42553191,116.095052 L1.42553191,155.980469 L0.712765957,155.980469 L0,154.55599 L0,154.55599 L0,154.55599 Z M0,90.4544271 L0,69.7994792 L0.711278502,68.375 L1.42553191,69.7994792 L1.42553191,90.4544271 L0.711278502,91.8789062 L0,90.4544271 L0,90.4544271 L0,90.4544271 Z M134,532.755208 C145.809493,532.755208 155.382979,523.188792 155.382979,511.388021 C155.382979,499.587249 145.809493,490.020833 134,490.020833 C122.190507,490.020833 112.617021,499.587249 112.617021,511.388021 C112.617021,523.188792 122.190507,532.755208 134,532.755208 L134,532.755208 L134,532.755208 L134,532.755208 Z M134,532.042969 C145.415843,532.042969 154.670213,522.795434 154.670213,511.388021 C154.670213,499.980608 145.415843,490.733073 134,490.733073 C122.584157,490.733073 113.329787,499.980608 113.329787,511.388021 C113.329787,522.795434 122.584157,532.042969 134,532.042969 L134,532.042969 L134,532.042969 L134,532.042969 Z M51.619263,540.589844 C19.5447944,540.589844 7.84042553,529.54606 7.84042553,496.783038 L7.84042553,50.2169617 C7.84042553,17.4539398 19.5447944,6.41015625 51.619263,6.41015625 L216.380737,6.41015625 C248.455205,6.41015625 260.159574,17.4539398 260.159574,50.2169617 L260.159574,496.783038 C260.159574,529.54606 248.455205,540.589844 216.380737,540.589844 L51.619263,540.589844 L51.619263,540.589844 L51.619263,540.589844 Z M17.1004366,64.8138021 C16.3164212,64.8138021 15.6808511,65.4495236 15.6808511,66.2432575 L15.6808511,480.756742 C15.6808511,481.546209 16.3183435,482.186198 17.1004366,482.186198 L250.899564,482.186198 C251.683579,482.186198 252.319149,481.550476 252.319149,480.756742 L252.319149,66.2432575 C252.319149,65.4537911 251.681657,64.8138021 250.899564,64.8138021 L17.1004366,64.8138021 L17.1004366,64.8138021 L17.1004366,64.8138021 Z M112.617021,34.5436198 C112.617021,37.0364583 113.896704,37.0364583 115.470571,37.0364583 L153.242195,37.0364583 C154.818167,37.0364583 156.095745,37.0364583 156.095745,34.5436198 C156.095745,32.0507812 154.816062,32.0507812 153.242195,32.0507812 L115.470571,32.0507812 C113.894599,32.0507812 112.617021,32.0507812 112.617021,34.5436198 L112.617021,34.5436198 L112.617021,34.5436198 L112.617021,34.5436198 Z M113.329787,34.5436198 C113.329787,36.3242188 114.293887,36.3242188 115.461235,36.3242188 L153.251531,36.3242188 C154.428697,36.3242188 155.382979,36.3242188 155.382979,34.5436198 C155.382979,32.7630208 154.418879,32.7630208 153.251531,32.7630208 L115.461235,32.7630208 C114.284069,32.7630208 113.329787,32.7630208 113.329787,34.5436198 L113.329787,34.5436198 L113.329787,34.5436198 L113.329787,34.5436198 Z M95.4898861,34.5560761 C95.4898861,32.3926013 93.734747,30.6387584 91.5696734,30.6387584 C89.4045997,30.6387584 87.6494606,32.3926013 87.6494606,34.5560761 C87.6494606,36.719551 89.4045997,38.4733939 91.5696734,38.4733939 C93.734747,38.4733939 95.4898861,36.719551 95.4898861,34.5560761 L95.4898861,34.5560761 L95.4898861,34.5560761 L95.4898861,34.5560761 Z M91.5738238,37.758663 C93.3452475,37.758663 94.7812706,36.3237006 94.7812706,34.5535849 C94.7812706,32.7834691 93.3452475,31.3485068 91.5738238,31.3485068 C89.8024001,31.3485068 88.366377,32.7834691 88.366377,34.5535849 C88.366377,36.3237006 89.8024001,37.758663 91.5738238,37.758663 L91.5738238,37.758663 L91.5738238,37.758663 L91.5738238,37.758663 Z M268,154.55599 L267.287234,155.980469 L266.574468,154.55599 L266.574468,117.519531 L267.287234,116.095052 L268,117.519531 L268,154.55599 L268,154.55599 L268,154.55599 Z" id="Shape" sketch:type="MSShapeGroup"></path>
        </g>
    </g>
</svg>